#!OML:ASF F:\twosubjects\two\Thursday\Session 1\Rory.ASF
:FULLY-SPECIFIED
:DEGREES
456
root 8.22846 18.5146 -1.2398 2.62932 11.9438 2.22488
lowerback -4.95085 1.20158 -1.26871
upperback -0.632322 1.6885 -0.768441
thorax 2.11088 0.835227 0.0348348
lowerneck -11.7316 -0.288184 1.44136
upperneck 28.6812 -2.53681 6.39667
head 11.327 -0.165124 1.77783
rclavicle -1.96521e-014 -4.19933e-015
rhumerus 39.3247 -2.02864 -94.1034
rradius 23.3279
rwrist 7.95726
rhand -40.4842 20.5
rfingers 7.12502
rthumb -13.4345 -9.04681
lclavicle -1.96521e-014 -4.19933e-015
lhumerus 30.205 -10.3192 79.6021
lradius 33.958
lwrist -0.793624
lhand -18.9484 47.9955
lfingers 7.12502
lthumb 7.355 1157.85
rfemur -7.57392 3.98542 17.5452
rtibia 24.623
rfoot -17.7498 -24.359
rtoes 1.26627
lfemur -3.24956 -5.22733 -17.9105
ltibia 15.9381
lfoot -14.5046 -4.08757
ltoes 0.0393466
457
root 8.22491 18.5128 -1.2515 2.60507 12.0003 2.41814
lowerback -4.84193 1.13031 -1.56902
upperback -0.650972 1.60614 -0.730556
thorax 2.02218 0.79236 0.233657
lowerneck -11.7112 -0.280186 1.47569
upperneck 28.7147 -2.49443 6.25603
head 11.3313 -0.158974 1.72606
rclavicle -3.18366e-017 5.19325e-015
rhumerus 39.2982 -1.94776 -93.9458
rradius 23.3179
rwrist 7.92338
rhand -40.0606 19.9257
rfingers 7.12502
rthumb -13.0262 -9.64761
lclavicle -3.18366e-017 5.19325e-015
lhumerus 30.1571 -10.2239 79.7424
lradius 33.9833
lwrist -1.16257
lhand -18.7122 48.4057
lfingers 7.12502
lthumb 7.58297 1158.25
rfemur -7.5301 3.84486 17.338
rtibia 24.6535
rfoot -17.7493 -24.2678
rtoes 1.4424
lfemur -3.18361 -5.34495 -18.1298
ltibia 15.8753
lfoot -14.2595 -3.67414
ltoes -0.40886
458
root 8.2083 18.5137 -1.26123 2.40321 11.9692 2.13408
lowerback -4.53487 1.07689 -1.49623
upperback -0.685661 1.5209 -0.581153
thorax 1.81382 0.751553 0.333659
lowerneck -11.5614 -0.263241 1.50567
upperneck 28.544 -2.44728 6.20587
head 11.2323 -0.148583 1.70402
rclavicle -7.13916e-015 -6.5102e-015
rhumerus 39.211 -1.82514 -93.8882
rradius 23.3126
rwrist 8.11758
rhand -40.4536 18.1555
rfingers 7.12502
rthumb -13.405 -11.3932
lclavicle -7.13916e-015 -6.5102e-015
lhumerus 29.3976 -9.03088 81.1193
lradius 34.4473
lwrist -2.33372
lhand -19.5123 48.0876
lfingers 7.12502
lthumb 6.81066 1157.96
rfemur -7.41666 4.24204 17.7507
rtibia 24.6609
rfoot -17.6959 -24.7019
rtoes 0.303139
lfemur -3.05592 -5.09738 -17.7596
ltibia 15.8216
lfoot -13.9142 -3.5125
ltoes -0.113135
459
root 8.20931 18.5149 -1.25161 2.2926 11.5824 1.99761
lowerback -4.7244 1.17564 -1.31164
upperback -0.583937 1.64806 -0.578847
thorax 2.02744 0.814345 0.246112
lowerneck -11.6367 -0.354868 1.32805
upperneck 28.4849 -2.59883 6.41296
head 11.2347 -0.212503 1.79022
rclavicle 3.14375e-014 7.45443e-015
rhumerus 39.2603 -1.76426 -93.7596
rradius 23.3207
rwrist 8.27057
rhand -40.7671 16.8376
rfingers 7.12502
rthumb -13.7071 -12.691
lclavicle 3.14375e-014 7.45443e-015
lhumerus 30.2235 -10.4191 79.5669
lradius 34.1407
lwrist -0.294014
lhand -20.5379 49.3434
lfingers 7.12502
lthumb 5.8205 1159.24
rfemur -7.37327 4.58988 17.8913
rtibia 24.6714
rfoot -17.5471 -24.9004
rtoes -0.92969
lfemur -2.84117 -5.1146 -17.6787
ltibia 15.7603
lfoot -14.0798 -3.32822
ltoes 0.226306
460
root 8.19937 18.5125 -1.29171 1.80402 12.7941 2.10722
lowerback -3.90401 0.789914 -1.37004
upperback -0.432204 1.12462 -0.644087
thorax 1.73099 0.554301 0.167309
lowerneck -11.8873 -0.498778 1.24242
upperneck 28.6238 -2.82524 6.47747
head 11.3492 -0.308458 1.80311
rclavicle -3.13144e-014 -5.41688e-015
rhumerus 39.3549 -1.66746 -93.336
rradius 23.4557
rwrist 7.9746
rhand -40.1029 18.8363
rfingers 7.12502
rthumb -13.067 -10.7343
lclavicle -3.13144e-014 -5.41688e-015
lhumerus 30.598 -10.3612 79.4666
lradius 33.8546
lwrist -1.30239
lhand -19.6474 49.5882
lfingers 7.12502
lthumb 6.68022 1159.46
rfemur -6.74957 4.66276 17.9086
rtibia 24.6808
rfoot -17.9057 -26.0091
rtoes 0.319895
lfemur -2.57338 -6.41675 -17.8638
ltibia 15.6903
lfoot -13.9602 -3.4728
ltoes 0.192117
461
root 8.20426 18.5156 -1.27491 2.34056 12.2107 2.417
lowerback -4.89367 0.961545 -1.69971
upperback -0.421405 1.39224 -0.700263
thorax 2.2865 0.681304 0.32787
lowerneck -12.0559 -0.571121 1.27377
upperneck 28.7361 -2.91019 6.33381
head 11.4267 -0.355058 1.73604
rclavicle 2.13996e-014 -1.26974e-014
rhumerus 39.3905 -1.37921 -92.6221
rradius 23.6343
rwrist 7.41139
rhand -39.5437 20.3273
rfingers 7.12502
rthumb -12.5279 -9.2771
lclavicle 2.13996e-014 -1.26974e-014
lhumerus 30.2615 -9.21107 80.7317
lradius 33.9025
lwrist -3.45776
lhand -18.9241 48.5198
lfingers 7.12502
lthumb 7.37839 1158.37
rfemur -7.31895 4.80216 17.4726
rtibia 24.7761
rfoot -17.9764 -25.5176
rtoes 0.286114
lfemur -2.83806 -5.98404 -18.1752
ltibia 15.47
lfoot -13.9408 -3.20689
ltoes -0.829208
462
root 8.2019 18.5158 -1.2779 2.36595 12.1423 2.67448
lowerback -5.00331 0.955673 -2.01961
upperback -0.399968 1.40632 -0.741178
thorax 2.36312 0.684555 0.468302
lowerneck -12.0025 -0.611329 1.28338
upperneck 28.7132 -2.97637 6.36381
head 11.4099 -0.381981 1.73616
rclavicle -2.43278e-015 2.93207e-015
rhumerus 39.2494 -1.25141 -92.1937
rradius 23.9749
rwrist 7.26175
rhand -39.2049 19.3763
rfingers 7.12502
rthumb -12.2013 -10.2479
lclavicle -2.43278e-015 2.93207e-015
lhumerus 30.7844 -10.3153 79.5211
lradius 33.906
lwrist -2.03366
lhand -19.0417 48.2565
lfingers 7.12502
lthumb 7.26487 1158.11
rfemur -7.31072 4.87738 17.1765
rtibia 24.905
rfoot -18.5335 -25.2328
rtoes 0.476736
lfemur -2.65617 -6.08634 -18.4643
ltibia 15.2259
lfoot -13.9235 -3.23307
ltoes -1.25354
463
root 8.20375 18.5154 -1.2825 2.38657 11.9718 2.83533
lowerback -5.17214 0.927173 -2.14077
upperback -0.388106 1.38181 -0.798144
thorax 2.46905 0.670239 0.479329
lowerneck -11.6876 -0.603431 1.24151
upperneck 28.5002 -2.98056 6.53945
head 11.2679 -0.379522 1.80258
rclavicle 1.08547e-014 -5.8393e-015
rhumerus 38.975 -1.18248 -92.1837
rradius 24.4425
rwrist 7.51743
rhand -38.8335 18.8102
rfingers 7.12502
rthumb -11.8431 -10.8349
lclavicle 1.08547e-014 -5.8393e-015
lhumerus 30.9788 -10.519 78.9212
lradius 33.9062
lwrist -1.81965
lhand -18.7379 47.9536
lfingers 7.12502
lthumb 7.55812 1157.8
rfemur -7.36392 4.73721 16.9481
rtibia 25.02
rfoot -18.6815 -24.8077
rtoes 0.474254
lfemur -2.50161 -6.15915 -18.6675
ltibia 15.0271
lfoot -13.8742 -3.20595
ltoes -0.866335
464
root 8.20962 18.5154 -1.28823 2.44856 11.6112 2.81543
lowerback -5.3826 0.984441 -2.04867
upperback -0.388782 1.4582 -0.78185
thorax 2.58631 0.708024 0.454191
lowerneck -11.4254 -0.623336 1.10057
upperneck 28.2629 -2.98256 6.64959
head 11.1268 -0.394737 1.86144
rclavicle -2.39124e-014 6.4605e-016
rhumerus 38.8649 -0.861733 -91.7969
rradius 24.7489
rwrist 7.32049
rhand -38.537 18.7518
rfingers 7.12502
rthumb -11.5571 -10.9096
lclavicle -2.39124e-014 6.4605e-016
lhumerus 31.0051 -10.4289 78.7063
lradius 34.0556
lwrist -1.97382
lhand -18.2417 48.264
lfingers 7.12502
lthumb 8.03708 1158.09
rfemur -7.55936 4.4623 16.8726
rtibia 25.034
rfoot -18.3472 -24.2648
rtoes 0.471392
lfemur -2.54051 -5.60047 -18.6412
ltibia 14.9829
lfoot -13.7493 -3.27128
ltoes -0.61863
465
root 8.21733 18.5156 -1.30758 2.41787 11.4332 2.75451
lowerback -5.20989 1.03701 -1.85557
upperback -0.472461 1.50982 -0.752579
thorax 2.4064 0.737818 0.375308
lowerneck -11.387 -0.672835 0.944956
upperneck 28.3361 -3.0249 6.66348
head 11.1498 -0.427557 1.88967
rclavicle -1.75179e-015 4.72114e-015
rhumerus 38.833 -0.380512 -90.9789
rradius 24.879
rwrist 6.53479
rhand -38.0851 18.6563
rfingers 7.12502
rthumb -11.1213 -11.029
lclavicle -1.75179e-015 4.72114e-015
lhumerus 30.918 -10.4016 78.6841
lradius 34.2145
lwrist -2.0801
lhand -17.6579 48.4436
lfingers 7.12502
lthumb 8.60049 1158.25
rfemur -7.63592 4.20495 16.858
rtibia 24.9291
rfoot -17.9932 -23.9158
rtoes 0.449327
lfemur -2.66806 -5.35357 -18.6047
ltibia 15.1699
lfoot -13.7228 -3.21454
ltoes -0.00106747
